<?xml version="1.0" standalone="no"?><!DOCTYPE svg PUBLIC "-//W3C//DTD SVG 1.1//EN" "http://www.w3.org/Graphics/SVG/1.1/DTD/svg11.dtd"><svg class="icon" height="512" viewBox="0 0 1024 1024" version="1.1" xmlns="http://www.w3.org/2000/svg"><path d="M515.641 465.579c0-86.813-55.979-124.018-140.288-124.018-21.845 0-35.726 0.797-43.008 1.593-4.096 0-7.282 2.389-7.282 17.863v228.693h49.493c46.99 0 77.027-6.485 98.873-24.349 26.851-21.163 42.211-53.589 42.211-99.783z" fill="" /><path d="M855.723 74.411h-689.607c-50.062 0-91.022 40.96-91.022 91.022v697.344c0 50.062 40.96 91.022 91.022 91.022h689.607c50.062 0 91.022-40.96 91.022-91.022v-697.344c0-50.062-40.96-91.022-91.022-91.022zM673.792 840.135c-73.842 0-112.754-4.096-235.179-204.345-20.253-29.241-44.601-30.037-113.55-30.037v134.599c0 64.057 6.485 77.824 76.231 81.123v11.378h-198.542v-11.378c72.135-3.299 78.621-17.067 78.621-81.123v-325.063c0-64.057-6.485-72.931-74.638-77.824v-12.174h191.374c80.327 0 167.822 24.349 167.822 128.114 0 68.949-36.523 109.454-98.873 137.899 12.971 25.145 46.99 77.027 72.135 111.047 38.912 47.787 95.687 117.533 136.989 127.317l-2.389 10.467zM814.421 410.169c-25.6 13.539-52.679 20.253-81.123 20.253-33.678 0-59.278-12.629-76.8-37.774-17.522-25.145-26.283-56.661-26.283-94.322 0-37.433 9.557-68.494 28.558-93.184 19.115-24.803 44.942-37.091 77.483-37.091 30.72 0 54.386 9.33 70.883 28.103l-17.635 18.318c-13.198-15.587-31.289-23.325-54.158-23.325-22.301 0-40.619 9.216-54.841 27.534-14.336 18.432-21.504 43.577-21.504 75.435 0 32.427 6.827 59.506 20.366 80.896 13.539 21.504 32.313 32.199 56.32 32.199 19.911 0 37.091-2.617 51.427-7.737v-73.501h-35.385v-20.935h62.691v105.131z" fill="" /></svg>